<svg xmlns="http://www.w3.org/2000/svg" version="1.1" width="512" height="512" viewBox="0 0 512 512">
  <g transform="translate(0,512) scale(0.1,-0.1)" stroke="none">
    <g fill="#2581bf">
      <path d="M220 4699 c0 -5 -5 -7 -10 -4 -7 4 -9 -707 -8 -2137 l3 -2143 528 -3
c368 -1 527 1 527 9 0 5 4 7 10 4 7 -4 11 393 12 1171 l3 1178 45 -68 c24 -38
50 -75 58 -82 7 -8 10 -14 5 -14 -4 0 1 -7 11 -15 11 -8 16 -15 10 -15 -5 0
-2 -6 7 -13 16 -12 19 -18 19 -38 0 -5 4 -8 8 -5 5 3 9 0 9 -7 0 -7 51 -91
113 -187 62 -96 126 -196 142 -222 16 -27 34 -48 39 -48 6 0 8 -4 4 -9 -3 -6
1 -13 9 -18 14 -8 16 -12 16 -34 0 -5 4 -8 8 -5 5 3 9 0 9 -7 0 -18 173 -287
185 -287 5 0 7 -4 3 -9 -3 -6 1 -13 9 -18 8 -4 15 -12 15 -18 2 -19 116 -193
124 -188 4 2 7 1 6 -4 -4 -21 2 -34 13 -27 7 4 8 3 4 -4 -4 -6 15 -44 42 -84
27 -40 73 -111 102 -158 29 -47 62 -93 74 -103 11 -10 15 -16 9 -12 -7 3 6
-23 29 -59 23 -36 46 -66 50 -66 5 0 6 -6 2 -12 -5 -10 -4 -10 5 -2 9 8 12
120 12 445 0 239 0 439 0 445 -1 10 -112 100 -314 253 l-57 43 0 138 c0 126
-2 138 -21 156 -97 88 -35 254 95 254 131 0 195 -167 97 -254 -19 -17 -21 -29
-21 -122 l0 -103 37 -30 c20 -16 41 -27 47 -24 6 3 8 3 4 -2 -7 -7 18 -32 32
-33 3 0 22 -16 44 -37 26 -24 42 -33 49 -26 7 7 10 219 9 620 l-1 611 -42 65
c-22 36 -45 65 -50 65 -5 0 -8 4 -7 9 3 7 -107 184 -345 553 -41 64 -77 115
-79 112 -3 -2 -5 2 -5 9 0 7 -32 62 -71 123 -39 60 -127 197 -196 304 l-124
195 -671 3 c-470 1 -671 -1 -671 -9z"/>
    </g>
    <g fill="#45ae4f">
      <path d="M3418 4483 c-80 -126 -202 -316 -270 -423 -69 -107 -211 -330 -317
-495 l-191 -300 0 -499 0 -498 28 17 c15 10 64 48 110 83 l83 66 -3 95 -3 96
-35 0 -35 0 -3 148 -3 147 156 0 156 0 -3 -147 -3 -148 -37 -3 -38 -3 0 -129
0 -129 -126 -98 c-70 -54 -153 -117 -185 -141 -55 -41 -59 -46 -59 -85 -2
-201 2 -1112 4 -1115 2 -1 33 43 69 100 35 57 111 175 167 263 57 88 158 246
225 350 354 552 525 821 585 915 127 200 142 222 147 217 9 -10 10 -108 11
-1239 l2 -1118 530 0 c292 0 530 3 530 8 1 15 1 4268 0 4280 0 9 -142 12 -674
12 l-673 0 -145 -227z"/>
    </g>
  </g>
</svg>
